<?xml version="1.0" encoding="utf-8"?>
<!-- Generator: Adobe Illustrator 27.3.1, SVG Export Plug-In . SVG Version: 6.00 Build 0)  -->
<svg version="1.1" id="Layer_1" xmlns="http://www.w3.org/2000/svg" xmlns:xlink="http://www.w3.org/1999/xlink" x="0px" y="0px"
	 viewBox="0 0 100 100" style="enable-background:new 0 0 100 100;" xml:space="preserve">
<style type="text/css">
	.st0{fill:#754C24;}
	.st1{fill:#FFFFFF;}
	.st2{fill:none;stroke:#000000;stroke-width:1.6801;stroke-miterlimit:10;}
	.st3{fill:#C9CACC;}
	.st4{fill:#F6F196;}
	.st5{stroke:#000000;stroke-width:0.252;stroke-miterlimit:10;}
	.st6{font-family:'Pecita';}
	.st7{font-size:20.0243px;}
</style>
<g>
	<path class="st0" d="M50.29,76.67c-17.75,0-32.2-14.44-32.2-32.2v-5.4c0-1.44,1.17-2.61,2.61-2.61h60.94
		c1.44,0,2.61,1.17,2.61,2.61v5.4c0,17.75-14.44,32.2-32.2,32.2H50.29z"/>
	<path d="M81.64,37.22c1.02,0,1.85,0.83,1.85,1.85v5.4c0,17.34-14.11,31.44-31.44,31.44h-1.76c-17.34,0-31.44-14.11-31.44-31.44
		v-5.4c0-1.02,0.83-1.85,1.85-1.85H81.64 M81.64,35.71H20.7c-1.86,0-3.36,1.5-3.36,3.36v5.4c0,18.2,14.75,32.95,32.95,32.95h1.76
		C70.25,77.43,85,62.68,85,44.48v-5.4C85,37.22,83.5,35.71,81.64,35.71L81.64,35.71z"/>
</g>
<g>
	<path class="st1" d="M68.76,87.25c-0.32,0-0.64-0.01-0.97-0.03c-7.52-0.4-17.22-5.22-20.86-9.28c-0.99-1.1-1.49-2.08-1.45-2.84
		c0.2-3.7,12.73-9.74,22.37-9.74c0.38,0,0.75,0.01,1.11,0.03c3.53,0.19,6.22,1.28,7.99,3.26c2.41,2.68,2.59,6.3,2.49,8.23
		C79.28,80,77.9,87.25,68.76,87.25z"/>
	<path d="M67.86,64.61v1.51c0.36,0,0.72,0.01,1.07,0.03c3.32,0.17,5.83,1.19,7.47,3.01c2.22,2.47,2.39,5.88,2.29,7.68
		c-0.19,3.6-1.74,9.64-9.94,9.64c-0.3,0-0.61-0.01-0.93-0.03c-7.34-0.39-16.79-5.08-20.34-9.03c-0.81-0.91-1.28-1.76-1.25-2.29
		c0.06-1.2,2.53-3.51,7.13-5.59c4.73-2.15,10.15-3.43,14.5-3.43V64.61 M67.86,64.61c-9.72,0-22.89,6.03-23.13,10.45
		c-0.25,4.6,13.22,12.39,23.02,12.91C68.1,87.99,68.43,88,68.76,88c8.95,0,11.2-6.63,11.44-11.07c0.25-4.6-1.4-11.77-11.19-12.29
		C68.63,64.62,68.25,64.61,67.86,64.61L67.86,64.61z"/>
</g>
<g>
	<path class="st1" d="M70.82,81.72c-0.54,0-1.1-0.01-1.7-0.05c-10.25-0.54-22.2-5.14-22.5-6.84c0.42-1.41,10.6-4.46,20.96-4.46
		c0.74,0,1.46,0.02,2.15,0.05c4.62,0.24,7.92,1.33,9.55,3.15c1.01,1.12,1.17,2.28,1.13,3.06C80.33,78.16,79.23,81.72,70.82,81.72z"
		/>
	<path d="M67.58,71.21L67.58,71.21c0.73,0,1.44,0.02,2.11,0.05c5.54,0.29,7.94,1.72,8.97,2.87c0.82,0.91,0.95,1.83,0.92,2.45
		c-0.15,2.69-3.42,4.3-8.76,4.3c-0.53,0-1.08-0.02-1.65-0.05c-8.83-0.46-19.08-4.06-21.38-5.92C50.03,73.48,59,71.21,67.58,71.21
		 M67.58,69.53c-9.57,0-21.67,2.91-21.8,5.28c-0.14,2.55,13.5,7.2,23.3,7.71c0.61,0.03,1.19,0.05,1.74,0.05
		c8.33,0,10.31-3.5,10.43-5.89c0.14-2.55-1.68-6.57-11.47-7.09C69.06,69.55,68.33,69.53,67.58,69.53L67.58,69.53z"/>
</g>
<g>
	<line class="st2" x1="80.27" y1="77.14" x2="46.16" y2="74.08"/>
</g>
<g>
	<path class="st3" d="M45.35,77.35c-0.1,0-0.19-0.01-0.29-0.02l-21.86-2.4c-0.7-0.08-1.33-0.42-1.77-0.97
		c-0.43-0.54-0.62-1.21-0.55-1.88c0.15-1.31,1.27-2.3,2.61-2.3c0.1,0,0.19,0.01,0.29,0.02l21.86,2.4c0.7,0.08,1.33,0.42,1.77,0.97
		c0.43,0.54,0.62,1.2,0.55,1.88C47.82,76.36,46.69,77.35,45.35,77.35z"/>
	<path d="M23.5,70.53L23.5,70.53c0.07,0,0.14,0,0.21,0.01l21.86,2.4c0.5,0.06,0.95,0.3,1.27,0.7c0.3,0.38,0.44,0.85,0.39,1.32
		c-0.1,0.91-0.92,1.63-1.86,1.63c-0.07,0-0.14,0-0.21-0.01l-21.86-2.4c-0.5-0.06-0.95-0.3-1.27-0.7c-0.3-0.38-0.44-0.85-0.39-1.32
		C21.74,71.25,22.55,70.53,23.5,70.53 M23.5,69.03c-1.7,0-3.17,1.27-3.36,2.97c-0.21,1.82,1.14,3.48,2.99,3.69l21.86,2.4
		c0.13,0.01,0.25,0.02,0.37,0.02c1.7,0,3.17-1.27,3.36-2.97c0.21-1.82-1.14-3.48-2.99-3.69l-21.86-2.4
		C23.74,69.03,23.62,69.03,23.5,69.03L23.5,69.03z"/>
</g>
<g>
	<path class="st4" d="M52.85,48.31c-1.61,0-1.75-0.67-1.95-2.31c-0.2-1.74-0.51-4.36-4.81-4.36c-0.95,0-1.84-0.71-2.79-1.46
		c-1.11-0.88-2.37-1.88-3.97-1.88c-1.27,0-1.49,1.47-1.74,3.18c-0.43,2.93-0.96,5.16-3.33,5.16c-1.54,0-1.95-4.03-2.14-5.96
		c-0.17-1.72-0.25-2.5-1.11-2.5c-0.16,0-0.46,0.05-0.71,0.38c-0.46,0.43-1.72,1.41-2.81,1.41c-0.71,0-1.47-0.78-2.2-1.54
		c-0.86-0.88-1.74-1.8-2.88-1.8c-2.75,0-3.26,1.96-3.59,3.25c-0.34,1.32-0.54,1.75-1.48,1.75c-1.48,0-2.26-0.19-2.51-4.28
		c-0.04-0.67,0.19-1.31,0.65-1.8c0.47-0.51,1.12-0.79,1.82-0.8c6-0.08,17.48-0.21,26.95-0.21c5.42,0,9.42,0.04,11.89,0.13
		c0.49,0.02,0.83,0.14,1,0.36c0.18,0.23,0.34,0.76,0.11,1.96c-0.53,0.47-1.69,1.3-2.69,1.3c-0.27,0-0.53,0.11-0.72,0.31
		c-0.57,0.58-0.57,1.84-0.52,4.41C53.34,44.6,53.41,47.89,52.85,48.31z"/>
	<path d="M44.24,35.29c5.41,0,9.4,0.04,11.87,0.13c0.31,0.01,0.42,0.07,0.43,0.07c0,0,0,0,0,0c0.01,0.02,0.14,0.27,0.01,1.1
		c-0.52,0.42-1.36,0.95-2,0.95c-0.47,0-0.92,0.19-1.26,0.53c-0.78,0.8-0.79,2.1-0.73,4.96c0.03,1.3,0.07,3.58-0.18,4.51
		c-0.5-0.05-0.57-0.32-0.73-1.63c-0.21-1.76-0.59-5.03-5.56-5.03c-0.68,0-1.48-0.63-2.32-1.3c-1.21-0.96-2.58-2.04-4.44-2.04
		c-1.92,0-2.22,2.03-2.49,3.82c-0.46,3.13-0.95,4.52-2.59,4.52c-0.2,0-0.9-0.38-1.39-5.28c-0.17-1.71-0.32-3.18-1.86-3.18
		c-0.24,0-0.82,0.07-1.27,0.62c-0.46,0.42-1.5,1.16-2.25,1.16c-0.39,0-1.15-0.79-1.66-1.31c-0.92-0.95-1.97-2.03-3.42-2.03
		c-3.33,0-3.98,2.48-4.33,3.82c-0.31,1.19-0.35,1.19-0.75,1.19c-1.06,0-1.54,0-1.76-3.57c-0.03-0.46,0.13-0.9,0.45-1.24
		c0.33-0.36,0.79-0.56,1.28-0.56C23.29,35.43,34.75,35.29,44.24,35.29 M44.24,33.78c-9.62,0-21.33,0.14-26.95,0.21
		c-1.86,0.02-3.33,1.57-3.21,3.41c0.24,3.95,0.99,4.98,3.26,4.98c3.38,0,0.95-5.01,5.07-5.01c1.69,0,3.09,3.34,5.07,3.34
		c1.69,0,3.38-1.67,3.38-1.67c0.05-0.08,0.09-0.12,0.13-0.12c0.58,0,0.08,8.46,3.25,8.46c5.07,0,3.38-8.34,5.07-8.34
		c2.64,0,4.31,3.34,6.77,3.34c6.77,0,1.69,6.67,6.77,6.67c2.32,0,0.38-10.01,1.69-10.01c1.69,0,3.38-1.67,3.38-1.67
		c0.42-1.92,0.21-3.39-1.78-3.46C53.42,33.82,49.1,33.78,44.24,33.78L44.24,33.78z"/>
</g>
<text transform="matrix(0.8791 0 0 1 15.6455 29.4004)" class="st5 st6 st7">BestCuit</text>
</svg>
